# xmcd
#
# Track frame offsets:
#	150
#	540
#	29852
#	55458
#	87472
#	116918
#	139616
#	162386
#	185397
#	212850
#	234606
#	262196
#	290409
#	310266
#
# Disc length: 4454 seconds
#
# Revision: 0
# Processed by: cddbd v1.5.1PL2 Copyright (c) Steve Scherf et al.
# Submitted via: dBpowerAMP V4.0
#
DISCID=d711640e
DTITLE=Astrid Lindgren - Mästerdetektiven Blomkvist - CD-BOK 02/03
DYEAR=1946
DGENRE=CD-BOK
TTITLE0=02.01
TTITLE1=02.02
TTITLE2=02.03
TTITLE3=02.04
TTITLE4=02.05
TTITLE5=02.06
TTITLE6=02.07
TTITLE7=02.08
TTITLE8=02.09
TTITLE9=02.10
TTITLE10=02.11
TTITLE11=02.12
TTITLE12=02.13
TTITLE13=02.14
EXTD=
EXTT0=
EXTT1=
EXTT2=
EXTT3=
EXTT4=
EXTT5=
EXTT6=
EXTT7=
EXTT8=
EXTT9=
EXTT10=
EXTT11=
EXTT12=
EXTT13=
PLAYORDER=
